<svg id="Layer_1" data-name="Layer 1" xmlns="http://www.w3.org/2000/svg" viewBox="0 0 50 37.72"><defs><style>.cls-1{fill:#fff;}</style></defs><title>bars-dark</title><path class="cls-1" d="M26,31.14H74a1,1,0,0,1,1,1h0a1,1,0,0,1-1,1H26a1,1,0,0,1-1-1h0A1,1,0,0,1,26,31.14Z" transform="translate(-25 -31.14)"/><path class="cls-1" d="M42.9,49H74a1,1,0,0,1,1,1h0a1,1,0,0,1-1,1H42.9a1,1,0,0,1-1-1h0A1,1,0,0,1,42.9,49Z" transform="translate(-25 -31.14)"/><path class="cls-1" d="M26,66.86H74a1,1,0,0,1,1,1h0a1,1,0,0,1-1,1H26a1,1,0,0,1-1-1h0A1,1,0,0,1,26,66.86Z" transform="translate(-25 -31.14)"/></svg>