<svg id="Layer_1" data-name="Layer 1" xmlns="http://www.w3.org/2000/svg" viewBox="0 0 25 15.67"><defs><style>.cls-1{fill:#fff;}</style></defs><title>behance-dark</title><path class="cls-1" d="M47.57,49.19A3.3,3.3,0,0,0,49.67,46c0-3.06-2.28-3.81-4.92-3.81H37.5V57.55H45c2.79,0,5.42-1.35,5.42-4.47a3.7,3.7,0,0,0-2.81-3.89Zm-6.69-4.4h3.17c1.22,0,2.32.34,2.32,1.76s-.85,1.83-2.06,1.83H40.88ZM44.5,54.93H40.88V50.7h3.69c1.48,0,2.43.62,2.43,2.19s-1.13,2-2.5,2ZM60.06,44.49H53.82V43h6.24v1.52Zm2.44,7.65c0-3.3-1.93-6-5.42-6A5.59,5.59,0,0,0,51.38,52c0,3.47,2.18,5.85,5.7,5.85a5,5,0,0,0,5.21-3.75h-2.7a2.74,2.74,0,0,1-5.15-1.38h8A5.3,5.3,0,0,0,62.5,52.14Zm-8.06-1.36A2.4,2.4,0,0,1,57,48.4a2.28,2.28,0,0,1,2.44,2.38Z" transform="translate(-37.5 -42.16)"/></svg>