<svg id="Layer_1" data-name="Layer 1" xmlns="http://www.w3.org/2000/svg" viewBox="0 0 25 25"><defs><style>.cls-1{fill:#fff;}</style></defs><title>dribbble-dark</title><path class="cls-1" d="M50,37.5A12.5,12.5,0,1,0,62.5,50,12.5,12.5,0,0,0,50,37.5Zm8.28,5.76a10.64,10.64,0,0,1,2.41,6.65,25,25,0,0,0-7.43-.34c-.29-.71-.57-1.33-.94-2.09A14.15,14.15,0,0,0,58.28,43.26ZM57.09,42a12,12,0,0,1-5.62,3.86,56.39,56.39,0,0,0-4-6.25A10.61,10.61,0,0,1,57.07,42ZM45.46,40.37a67.36,67.36,0,0,1,4,6.17,39.76,39.76,0,0,1-9.89,1.29A10.71,10.71,0,0,1,45.46,40.37ZM39.33,50V49.7a38.73,38.73,0,0,0,11-1.52c.31.63.63,1.21.87,1.81a16.57,16.57,0,0,0-9.1,7.18A10.61,10.61,0,0,1,39.33,50Zm4.11,8.42c1.12-2.28,4.15-5.22,8.45-6.69a44,44,0,0,1,2.28,8.13,10.65,10.65,0,0,1-10.73-1.45Zm12.5.43a44.7,44.7,0,0,0-2-7.63,15.42,15.42,0,0,1,6.65.46A10.68,10.68,0,0,1,56,58.86Z" transform="translate(-37.5 -37.5)"/></svg>