<svg id="Layer_1" data-name="Layer 1" xmlns="http://www.w3.org/2000/svg" viewBox="0 0 25 24.38"><defs><style>.cls-1{fill:#fff;}</style></defs><title>github-dark</title><path class="cls-1" d="M45.86,57.44c0,.1-.11.18-.26.18s-.28-.06-.28-.18.11-.18.26-.18S45.86,57.32,45.86,57.44Zm-1.57-.23c0,.1.07.22.22.25a.23.23,0,0,0,.31-.1c0-.1-.06-.22-.21-.26a.27.27,0,0,0-.32.11Zm2.23-.08c-.14,0-.24.13-.23.24a.23.23,0,0,0,.3.13c.14,0,.24-.13.23-.23A.26.26,0,0,0,46.52,57.13Zm3.32-19.32A12.09,12.09,0,0,0,37.5,50.11,12.65,12.65,0,0,0,46,62.17c.65.11.88-.29.88-.61s0-2,0-3.1c0,0-3.53.76-4.27-1.5,0,0-.57-1.47-1.4-1.84,0,0-1.15-.8.08-.78a2.66,2.66,0,0,1,1.95,1.3,2.65,2.65,0,0,0,3.67,1,2.83,2.83,0,0,1,.81-1.7c-2.82-.31-5.66-.72-5.66-5.56a3.8,3.8,0,0,1,1.19-3A4.79,4.79,0,0,1,43.4,43c1.05-.32,3.48,1.36,3.48,1.36A11.86,11.86,0,0,1,50,44a12,12,0,0,1,3.17.42S55.63,42.7,56.68,43a4.73,4.73,0,0,1,.13,3.43,3.89,3.89,0,0,1,1.3,3c0,4.86-3,5.25-5.78,5.56a3,3,0,0,1,.86,2.34c0,1.7,0,3.8,0,4.22s.23.72.87.61a12.53,12.53,0,0,0,8.46-12A12.36,12.36,0,0,0,49.84,37.81ZM42.4,55.2c-.07,0,0,.16,0,.26s.2.11.27,0,0-.17,0-.26S42.46,55.13,42.4,55.2Zm-.55-.41c0,.06,0,.14.12.19a.15.15,0,0,0,.22,0c0-.07,0-.15-.12-.2A.2.2,0,0,0,41.85,54.79Zm1.64,1.79c-.08.07-.05.22.06.31s.27.14.33.06,0-.22-.06-.32S43.55,56.5,43.49,56.58Zm-.58-.74c-.08,0-.08.18,0,.3s.22.17.29.11.08-.19,0-.31-.21-.16-.29-.1Z" transform="translate(-37.5 -37.81)"/></svg>