<svg id="Layer_1" data-name="Layer 1" xmlns="http://www.w3.org/2000/svg" viewBox="0 0 80 75"><defs><style>.cls-1{fill:#f28321;}.cls-2{fill:#fff;}</style></defs><title>logo-dark</title><polygon class="cls-1" points="15 30 37.5 30 37.5 45 15 45 15 60 37.5 60 52.5 60 52.5 15 37.5 15 15 15 15 30"/><polygon class="cls-2" points="0 15 0 30 0 45 0 60 0 75 15 75 37.5 75 37.5 60 15 60 15 45 37.5 45 37.5 30 15 30 15 15 37.5 15 37.5 0 15 0 0 0 0 15"/><path class="cls-2" d="M52.5,27.5h10v45h-10v15A37.5,37.5,0,0,0,90,50h0A37.5,37.5,0,0,0,52.5,12.5h0Z" transform="translate(-10 -12.5)"/></svg>