<?xml version="1.0" encoding="utf-8"?>
<!-- Generator: Adobe Illustrator 23.0.1, SVG Export Plug-In . SVG Version: 6.00 Build 0)  -->
<svg version="1.1" id="Layer_1" xmlns="http://www.w3.org/2000/svg" xmlns:xlink="http://www.w3.org/1999/xlink" x="0px" y="0px"
	 viewBox="0 0 47.7 47.7" style="enable-background:new 0 0 47.7 47.7;" xml:space="preserve">
<style type="text/css">
	.st0{fill:#FFFFFF;}
</style>
<title>x mark thin</title>
<g>
	<path class="st0" d="M5.3,5.2L5.3,5.2c0.3-0.3,0.8-0.3,1.1,0l36,36.2c0.3,0.3,0.3,0.8,0,1.1l0,0c-0.3,0.3-0.8,0.3-1.1,0L5.3,6.3
		C5,6,5,5.5,5.3,5.2z"/>
	<path class="st0" d="M5.2,41.3l36.1-36c0.3-0.3,0.8-0.3,1.1,0l0,0c0.3,0.3,0.3,0.8,0,1.1l-36.1,36c-0.3,0.3-0.8,0.3-1.1,0l0,0
		C4.9,42.2,4.9,41.7,5.2,41.3z"/>
</g>
</svg>
